HIERARCHY
ROOT Hips
{
    OFFSET 0.000000 0.000000 0.000000
    CHANNELS 6 Xposition Yposition Zposition Zrotation Xrotation Yrotation
        JOINT Chest
        {
            OFFSET -0.000000 31.986500 -0.000000
            CHANNELS 3 Zrotation Xrotation Yrotation
            JOINT Neck
            {
                OFFSET -0.000000 24.131615 0.000000
                CHANNELS 3 Zrotation Xrotation Yrotation
                JOINT Head
                {
                    OFFSET -0.000000 10.450000 0.000000
                    CHANNELS 3 Zrotation Xrotation Yrotation
                    End Site
                    {
                        OFFSET -0.000000 16.150003 0.000000
                    }
                }
            }
            JOINT LeftCollar
            {
                OFFSET -0.000000 24.131615 0.000000
                CHANNELS 3 Zrotation Xrotation Yrotation
                JOINT LeftShoulder
                {
                    OFFSET 20.000000 -0.000000 0.000000
                    CHANNELS 3 Zrotation Xrotation Yrotation
                    JOINT LeftElbow
                    {
                        OFFSET 22.686384 0.000000 0.000000
                        CHANNELS 3 Zrotation Xrotation Yrotation
                        JOINT LeftWrist
                        {
                            OFFSET 24.813133 0.000000 0.000000
                            CHANNELS 3 Zrotation Xrotation Yrotation
                            End Site
                            {
                                OFFSET 0.000000 -14.250000 0.000000
                            }
                        }
                    }
                }
            }
            JOINT RightCollar
            {
                OFFSET -0.000000 24.131615 0.000000
                CHANNELS 3 Zrotation Xrotation Yrotation
                JOINT RightShoulder
                {
                    OFFSET -20.000000 0.000000 0.000000
                    CHANNELS 3 Zrotation Xrotation Yrotation
                    JOINT RightElbow
                    {
                        OFFSET -22.686384 0.000000 0.000000
                        CHANNELS 3 Zrotation Xrotation Yrotation
                        JOINT RightWrist
                        {
                            OFFSET -24.813133 0.000000 0.000000
                            CHANNELS 3 Zrotation Xrotation Yrotation
                            End Site
                            {
                                OFFSET -0.000000 -14.250000 0.000000
                            }
                        }
                    }
                }
            }
        }
    JOINT LeftHip
    {
        OFFSET 11.400001 0.000000 0.000000
        CHANNELS 3 Zrotation Xrotation Yrotation
        JOINT LeftKnee
        {
            OFFSET -0.000000 -38.315727 0.000000
            CHANNELS 3 Zrotation Xrotation Yrotation
            JOINT LeftAnkle
            {
                OFFSET -0.000000 -38.060658 0.000000
                CHANNELS 3 Zrotation Xrotation Yrotation
                End Site
                {
                    OFFSET -0.000000 -4.750000 16.150003
                }
            }
        }
    }
    JOINT RightHip
    {
        OFFSET -11.400001 0.000000 0.000000
        CHANNELS 3 Zrotation Xrotation Yrotation
        JOINT RightKnee
        {
            OFFSET -0.000000 -38.315727 0.000000
            CHANNELS 3 Zrotation Xrotation Yrotation
            JOINT RightAnkle
            {
                OFFSET -0.000000 -38.060658 0.000000
                CHANNELS 3 Zrotation Xrotation Yrotation
                End Site
                {
                    OFFSET -0.000000 -4.750000 16.150003
                }
            }
        }
    }
}
MOTION
Frames:    8
Frame Time:    0.010000
35.399376    84.385040    -48.911518    -0.810025    6.908788    -96.832039    20.728802    -6.843041    -10.434916    -6.613046    23.735205    31.935453    -13.555302    -38.840622    25.754416    -0.139131    0.018592    -5.260897    17.969503    0.041482    -11.056450    15.509757    -2.044198    -14.318270    100.482033    10.505909    58.568958    7.399843    0.169162    2.530128    -4.537090    -6.295633    -3.895553    -81.179436    -48.260170    54.289127    -106.465866    25.534689    -55.274841    15.214980    -9.294747    3.148318    -20.530785    27.045692    24.040188    4.266658    -10.774943    32.532082    -4.470110    2.676886    9.250444    -13.089856    24.118917    30.923994    19.332195    -8.405428    -8.843064    
35.149281    84.407104    -48.452534    -0.889318    7.039469    -96.680542    20.865217    -7.082495    -10.464175    -6.233008    23.846304    31.775537    -14.035219    -38.846195    25.486021    -0.483823    0.016585    -5.481588    16.179909    0.740921    -9.384566    16.051212    -2.109107    -14.402965    99.867821    9.332699    62.912464    7.065777    0.134922    2.419588    -3.862120    -8.156077    -3.468957    -83.205612    -47.909218    52.218998    -106.455276    26.578983    -55.623486    14.206643    -8.579543    3.202424    -18.941870    26.263807    23.013151    4.543327    -11.058053    32.626404    -4.404743    2.576628    9.338568    -13.256964    24.590687    30.542706    19.954170    -7.516847    -8.926285    
34.905727    84.443413    -48.004456    -0.991997    7.179512    -96.409554    20.980768    -7.282918    -10.537624    -5.820313    23.870037    31.557867    -14.513108    -38.842594    25.174112    -0.845235    0.023679    -5.644711    14.289854    1.340010    -7.686721    16.485529    -2.181359    -14.818279    99.516129    8.464212    66.452454    6.712656    0.140138    2.310134    -3.153133    -9.984119    -2.952654    -85.059387    -47.437691    50.272324    -106.549774    27.833200    -56.050724    13.287204    -7.898417    3.285948    -17.489645    25.549391    22.020695    4.770150    -11.316317    32.604511    -4.280225    2.474148    9.442783    -13.434208    25.156149    30.117899    20.528498    -6.598182    -9.051079    
34.669323    84.500298    -47.568970    -1.116137    7.317938    -96.029747    21.061472    -7.448806    -10.639157    -5.367950    23.773333    31.282415    -14.952696    -38.773914    24.842878    -1.231604    0.027734    -5.733108    12.348462    1.903411    -6.022450    16.782887    -2.290781    -15.477811    99.433380    7.936217    69.147995    6.343264    0.097543    2.215902    -2.421336    -11.686591    -2.345848    -86.938072    -46.863354    48.179985    -106.731819    29.088861    -56.347591    12.469035    -7.251278    3.361525    -16.211750    24.874063    21.115541    4.954196    -11.509246    32.473721    -4.110388    2.367605    9.555715    -13.622761    25.800243    29.681705    21.052103    -5.645247    -9.229498    
34.439629    84.582588    -47.147507    -1.258525    7.445920    -95.551735    21.092339    -7.587592    -10.750118    -4.864566    23.520679    30.946577    -15.312842    -38.574005    24.517099    -1.639197    0.088574    -5.743283    10.367740    2.403128    -4.427577    16.903341    -2.399333    -16.403580    99.585350    7.757886    70.967552    5.949494    0.122145    2.144586    -1.666741    -13.382177    -1.699150    -88.652489    -46.194836    46.239838    -106.929466    30.569469    -56.857143    11.758313    -6.640567    3.405337    -15.127004    24.223114    20.319307    5.102608    -11.612747    32.251842    -3.908379    2.260059    9.669370    -13.823049    26.498398    29.261898    21.524364    -4.655244    -9.466738    
34.215389    84.692894    -46.741055    -1.413697    7.558199    -94.983467    21.059362    -7.713218    -10.849497    -4.291183    23.088110    30.549362    -15.567204    -38.176361    24.219942    -2.078533    0.104432    -5.688397    8.366273    2.936234    -2.951032    16.873913    -2.507354    -17.460409    99.903809    7.902484    72.116119    5.532484    0.078684    2.103196    -0.891961    -14.953409    -0.997546    -90.483162    -45.429451    44.069920    -107.132553    31.983654    -57.267696    11.153788    -6.070754    3.408536    -14.231635    23.591536    19.620777    5.222175    -11.620289    31.964918    -3.685336    2.158619    9.775105    -14.032968    27.218973    28.878469    21.947147    -3.628833    -9.760613    
33.994900    84.831001    -46.350132    -1.573891    7.653951    -94.329361    20.951618    -7.846685    -10.915732    -3.636007    22.472780    30.092360    -15.702654    -37.539116    23.962490    -2.542943    0.130450    -5.599740    6.317341    3.422632    -1.578794    16.672953    -2.614609    -18.737007    100.337891    8.316753    72.543686    5.081750    0.090180    2.089532    -0.091652    -16.540894    -0.277851    -92.188202    -44.571884    42.043858    -107.221733    33.652683    -58.003529    10.647473    -5.547548    3.375756    -13.500691    22.979698    18.981882    5.318779    -11.539382    31.643148    -3.449278    2.073106    9.863573    -14.247305    27.926651    28.540997    22.331150    -2.572364    -10.103192    
33.776371    84.993729    -45.974953    -1.730417    7.736516    -93.589020    20.761105    -8.013469    -10.930702    -2.900192    21.704428    29.582228    -15.727586    -36.666599    23.740728    -3.031860    0.158124    -5.509865    4.212683    3.827754    -0.309357    16.343639    -2.721415    -20.173742    100.815742    8.912162    72.442474    4.592528    0.106579    2.098444    0.736477    -18.118353    0.481857    -93.920753    -43.628632    39.928024    -107.216202    35.343479    -58.758537    10.226275    -5.076968    3.317938    -12.894902    22.390606    18.350267    5.397717    -11.387165    31.316442    -3.204923    2.015614    9.925036    -14.457573    28.585979    28.247564    22.700428    -1.498808    -10.484983    
